Coordinates
version=1
nRows=18
nColumns=22
inDegrees=yes

Units are S.I. units (second, meters, Newtons, ...)
If the header above contains a line with 'inDegrees', this indicates whether rotational values are in degrees (yes) or radians (no).

endheader
time	pelvis_tilt	pelvis_list	pelvis_rotation	pelvis_tx	pelvis_ty	pelvis_tz	hip_flexion_r	hip_adduction_r	hip_rotation_r	knee_angle_r	ankle_angle_r	subtalar_angle_r	hip_flexion_l	hip_adduction_l	hip_rotation_l	knee_angle_l	ankle_angle_l	subtalar_angle_l	lumbar_extension	lumbar_bending	lumbar_rotation
      0.01000000	    -10.47363159	      3.29337337	    -36.03867728	     -0.95920565	      0.88192561	     -0.39440868	      9.52791461	      2.65070491	     -0.42142260	     -5.09480429	     10.79906412	     -3.54840177	      8.09511301	     -3.10867071	     -3.69064527	     -7.95295416	     15.19165080	      0.97246714	      4.96116537	      2.49297417	     10.41617426
      0.02000000	    -10.47382567	      3.29733246	    -36.06893000	     -0.95911097	      0.88191819	     -0.39439658	      9.54129218	      2.64822290	     -0.40993782	     -5.12415794	     10.80949241	     -3.56316220	      8.07655025	     -3.10290615	     -3.70081187	     -7.93041804	     15.17287938	      0.97710338	      4.95804958	      2.49554253	     10.47127160
      0.03000000	    -10.47648931	      3.29962415	    -36.08270047	     -0.95898988	      0.88190606	     -0.39440376	      9.53579479	      2.64515168	     -0.41083965	     -5.11749679	     10.81427351	     -3.56645259	      8.07901329	     -3.09821218	     -3.69996405	     -7.94419807	     15.17572751	      0.97756603	      4.95568708	      2.49769291	     10.50977758
      0.04000000	    -10.47907998	      3.30146763	    -36.10447632	     -0.95886596	      0.88189364	     -0.39439850	      9.53269064	      2.64358381	     -0.39878764	     -5.11617892	     10.81575554	     -3.57143896	      8.07922170	     -3.09533362	     -3.71479363	     -7.95877562	     15.18616045	      0.97750789	      4.95368366	      2.50116493	     10.56666260
      0.05000000	    -10.48281438	      3.30359482	    -36.13161381	     -0.95875167	      0.88188113	     -0.39438067	      9.53072930	      2.64318305	     -0.37757426	     -5.11485406	     10.81610304	     -3.57743147	      8.08095783	     -3.09518687	     -3.74192632	     -7.97421025	     15.19712650	      0.97793382	      4.95104948	      2.50483035	     10.62494863
      0.06000000	    -10.48761381	      3.30592640	    -36.15587242	     -0.95863712	      0.88186762	     -0.39435949	      9.52790100	      2.64353042	     -0.36118954	     -5.11052994	     10.81649884	     -3.58264544	      8.08349683	     -3.09515033	     -3.76418722	     -7.98873493	     15.20534659	      0.97970758	      4.94931212	      2.50707339	     10.67336349
      0.07000000	    -10.49249616	      3.30724154	    -36.17758505	     -0.95851662	      0.88185559	     -0.39433896	      9.52401897	      2.64390940	     -0.34523815	     -5.10627763	     10.81665807	     -3.58740268	      8.08515050	     -3.09538164	     -3.78668522	     -8.00217549	     15.21428593	      0.98255610	      4.94857329	      2.50946900	     10.72025615
      0.08000000	    -10.49736546	      3.30845193	    -36.18563354	     -0.95837205	      0.88184378	     -0.39433687	      9.52056396	      2.64108339	     -0.34438998	     -5.10671013	     10.81683668	     -3.58800651	      8.08334264	     -3.09219324	     -3.78810538	     -8.00666025	     15.21507688	      0.98309112	      4.94960974	      2.51421682	     10.72634746
      0.09000000	    -10.49789417	      3.30887491	    -36.23009772	     -0.95828264	      0.88183865	     -0.39427245	      9.51587211	      2.64521444	     -0.29502635	     -5.10661577	     10.81668283	     -3.59490314	      8.07825606	     -3.09613642	     -3.85523974	     -8.02267221	     15.23999889	      0.99057281	      4.94393450	      2.51264444	     10.80623477
      0.10000000	    -10.50244047	      3.30975795	    -36.23868100	     -0.95814617	      0.88182966	     -0.39426638	      9.51234667	      2.64290634	     -0.29694831	     -5.10576772	     10.81801380	     -3.59544223	      8.07622070	     -3.09356043	     -3.85390733	     -8.02797317	     15.23908230	      0.99139866	      4.94471564	      2.51490322	     10.81391835
      0.11000000	    -10.50359994	      3.30956477	    -36.25509123	     -0.95803577	      0.88182670	     -0.39424516	      9.50693979	      2.64246921	     -0.29583926	     -5.10458471	     10.82501508	     -3.59719079	      8.07310004	     -3.09287639	     -3.86553742	     -8.03696719	     15.24206313	      0.99475488	      4.94001777	      2.51111458	     10.86372185
      0.12000000	    -10.50696743	      3.30937719	    -36.26372347	     -0.95789231	      0.88182011	     -0.39424190	      9.50380017	      2.63939548	     -0.29391771	     -5.10845805	     10.82532570	     -3.59745160	      8.06830558	     -3.09006476	     -3.86786039	     -8.04023615	     15.24273253	      0.99533391	      4.94280118	      2.51406587	     10.86592383
      0.13000000	    -10.49547186	      3.30633341	    -36.31530555	     -0.95780567	      0.88183148	     -0.39417902	      9.50682764	      2.63905845	     -0.25183201	     -5.14644754	     10.84183714	     -3.59900814	      8.03752012	     -3.08851793	     -3.93579906	     -8.03310174	     15.26014277	      1.00352228	      4.92432787	      2.50769012	     10.94437628
      0.14000000	    -10.49869317	      3.30614821	    -36.32378825	     -0.95767535	      0.88182469	     -0.39418039	      9.50440436	      2.63590516	     -0.24972924	     -5.14818491	     10.84293579	     -3.59909652	      8.03344166	     -3.08617782	     -3.93713120	     -8.03586983	     15.25941376	      1.00422515	      4.92624241	      2.50973355	     10.94354429
      0.15000000	    -10.48757098	      3.30268642	    -36.36898109	     -0.95758566	      0.88183514	     -0.39412422	      9.50438068	      2.63483850	     -0.19689612	     -5.18189713	     10.86834801	     -3.59680904	      7.99880139	     -3.08393708	     -3.99671376	     -8.01815522	     15.26360030	      1.01449356	      4.91030968	      2.50469855	     10.98905743
      0.16000000	    -10.49041833	      3.30177561	    -36.37527418	     -0.95746355	      0.88182848	     -0.39411824	      9.50130907	      2.63260578	     -0.19661669	     -5.18391275	     10.86862111	     -3.59668116	      7.99439191	     -3.08282042	     -3.99673500	     -8.02154261	     15.26329916	      1.01507483	      4.91384613	      2.50444832	     10.99069892
      0.17000000	    -10.49279472	      3.30018255	    -36.38300899	     -0.95734859	      0.88182261	     -0.39410180	      9.49839131	      2.63214108	     -0.19476526	     -5.18865951	     10.86982395	     -3.59620556	      7.98784001	     -3.08260367	     -3.99860537	     -8.02353938	     15.26406159	      1.01573943	      4.91802279	      2.50293847	     10.99392723
      0.18000000	    -10.48762748	      3.29309467	    -36.42303756	     -0.95727935	      0.88182908	     -0.39403687	      9.50523992	      2.63891492	     -0.16400790	     -5.22766274	     10.89267716	     -3.58860294	      7.95184568	     -3.08853795	     -4.04116950	     -7.99479134	     15.28150436	      1.02137842	      4.90736895	      2.50389340	     11.03780132
